<?xml version="1.0" standalone="no"?>
<!DOCTYPE svg PUBLIC "-//W3C//DTD SVG 20010904//EN"
 "http://www.w3.org/TR/2001/REC-SVG-20010904/DTD/svg10.dtd">
<svg version="1.0" xmlns="http://www.w3.org/2000/svg"
 width="2000.000000pt" height="2000.000000pt" viewBox="0 0 2000.000000 2000.000000"
 preserveAspectRatio="xMidYMid meet">

<g transform="translate(0.000000,2000.000000) scale(0.100000,-0.100000)"
fill="#000000" stroke="none">
<path d="M2435 19169 c-328 -36 -661 -151 -910 -316 -119 -80 -321 -277 -406
-398 -157 -223 -245 -434 -296 -715 -13 -70 -17 -149 -17 -295 0 -226 15 -348
68 -553 18 -70 391 -1353 829 -2852 439 -1499 802 -2741 807 -2762 22 -78 173
-181 312 -213 42 -9 1927 -125 5558 -340 3022 -178 5533 -329 5579 -335 155
-18 265 -89 323 -208 32 -64 33 -71 33 -187 -1 -108 -3 -126 -27 -177 -48
-105 -157 -183 -288 -208 -30 -6 -2552 -159 -5605 -340 -3052 -181 -5578 -333
-5612 -338 -110 -17 -215 -79 -250 -145 -9 -18 -26 -72 -38 -122 -34 -133
-1571 -5383 -1590 -5428 -28 -68 -73 -260 -89 -385 -49 -376 15 -753 184
-1088 170 -337 408 -576 726 -725 216 -102 474 -172 754 -205 172 -19 472 -15
615 10 233 40 -113 -128 5537 2697 6853 3426 9575 4791 9670 4850 579 357 924
988 895 1639 -8 168 -19 235 -58 353 -155 462 -492 885 -893 1122 -81 48
-14459 7374 -14751 7517 -128 62 -271 103 -460 133 -122 19 -474 28 -600 14z"/>
</g>
</svg>
